PathFileType	4	(X/Y/Z)	abd.trc
DataRate	CameraRate	NumFrames	NumMarkers	Units	OrigDataRate	OrigDataStartFrame	OrigNumFrames
100.0	100.0	6	17	mm	100.0	149	1189
Frame#	Time	STER			XIPH			T10			T1			CLAV_SC			CLAV_AC			SCAP_AA			SCAP_CP			SCAP_TS			SCAP_IA			DELT			ARMl			EPICm			EPICl			LARM_elb			STYLr			STYLu		
		X1	Y1	Z1	X2	Y2	Z2	X3	Y3	Z3	X4	Y4	Z4	X5	Y5	Z5	X6	Y6	Z6	X7	Y7	Z7	X8	Y8	Z8	X9	Y9	Z9	X10	Y10	Z10	X11	Y11	Z11	X12	Y12	Z12	X13	Y13	Z13	X14	Y14	Z14	X15	Y15	Z15	X16	Y16	Z16	X17	Y17	Z17

149	1.48	392.2091369628906	83.673095703125	1431.8104248046875	391.6195373535156	132.94906616210938	1270.41796875	379.1822204589844	-100.76338958740234	1240.570068359375	372.20111083984375	-74.62698364257812	1473.337158203125	428.2796325683594	75.50408172607422	1436.57275390625	579.046142578125	3.277804374694824	1453.892333984375	582.9119262695312	-43.759769439697266	1439.8228759765625	526.0217895507812	-49.4051513671875	1471.9515380859375	506.0314025878906	-106.76980590820312	1420.8077392578125	483.2198486328125	-121.62627410888672	1281.2119140625	642.533447265625	-24.337848663330078	1301.606201171875	658.279296875	-37.74724197387695	1254.6385498046875	630.8665771484375	-2.857180118560791	1092.8309326171875	709.8792724609375	-44.794898986816406	1143.9566650390625	653.1421508789062	-44.980220794677734	1085.835693359375	855.7517700195312	89.06514739990234	946.1467895507812	789.0824584960938	63.1407470703125	904.6654663085938
150	1.49	392.4042053222656	83.68280029296875	1431.825927734375	391.4139404296875	132.91647338867188	1270.235107421875	379.2324523925781	-100.77354431152344	1240.5538330078125	372.24371337890625	-74.6963119506836	1473.3349609375	428.2239074707031	75.39398193359375	1436.5242919921875	579.0657348632812	3.159696578979492	1453.8658447265625	582.8828125	-43.88691329956055	1439.8094482421875	526.0464477539062	-49.50214385986328	1471.99365234375	506.02056884765625	-106.8552474975586	1420.8245849609375	483.0713806152344	-121.7002182006836	1281.255859375	643.3221435546875	-24.51856231689453	1301.805419921875	658.3682861328125	-37.961448669433594	1254.703125	631.003173828125	-3.107980966567993	1092.888671875	709.76220703125	-45.077056884765625	1143.9981689453125	653.3148803710938	-45.25709915161133	1085.902587890625	855.9500732421875	88.78663635253906	946.4500732421875	789.3975830078125	62.9632453918457	904.8722534179688
151	1.5	392.03900146484375	83.36488342285156	1431.9810791015625	391.6746520996094	132.86245727539062	1270.41357421875	379.2500305175781	-100.83705139160156	1240.5362548828125	372.2335510253906	-74.74421691894531	1473.337646484375	429.3360290527344	75.38600158691406	1436.6689453125	579.0631713867188	3.0065701007843018	1453.8773193359375	582.8768310546875	-44.018638610839844	1439.7960205078125	526.0588989257812	-49.605857849121094	1471.9818115234375	506.0161437988281	-106.97207641601562	1420.77880859375	483.1457214355469	-121.77508544921875	1281.201904296875	643.1780395507812	-24.77111053466797	1301.8564453125	658.3832397460938	-38.19974136352539	1254.7601318359375	631.1295776367188	-3.444382667541504	1092.9404296875	709.8947143554688	-45.33774185180664	1144.11865234375	653.5067138671875	-45.51469039916992	1085.9566650390625	856.185791015625	88.48255157470703	946.8197021484375	789.7687377929688	62.77553939819336	905.1100463867188
152	1.51	392.068359375	83.29529571533203	1431.909912109375	391.58026123046875	132.8646240234375	1270.325439453125	379.27734375	-100.8564224243164	1240.505126953125	372.2465515136719	-74.8154525756836	1473.319091796875	428.44122314453125	75.34162139892578	1436.64990234375	579.0684204101562	2.863795042037964	1453.8536376953125	582.8529663085938	-44.15644073486328	1439.77685546875	526.0292358398438	-49.726009368896484	1471.9476318359375	505.9794616699219	-107.06310272216797	1420.767333984375	483.11346435546875	-121.84735870361328	1281.1385498046875	643.5230102539062	-25.014278411865234	1301.9002685546875	658.4169311523438	-38.456844329833984	1254.80126953125	631.497314453125	-3.6224231719970703	1093.04736328125	710.0449829101562	-45.651676177978516	1144.2384033203125	653.7516479492188	-45.82674789428711	1085.99365234375	856.3534545898438	88.2769546508789	946.9674682617188	790.1948852539062	62.61446762084961	905.3136596679688
153	1.52	392.1647033691406	83.2588882446289	1431.9437255859375	391.7120361328125	132.80772399902344	1270.4222412109375	379.2995910644531	-100.88347625732422	1240.499755859375	372.2757263183594	-74.88417053222656	1473.3206787109375	428.6581115722656	75.22077941894531	1436.406005859375	579.080810546875	2.7321672439575195	1453.859375	582.8203125	-44.29848861694336	1439.775634765625	526.0310668945312	-49.82233428955078	1471.9605712890625	505.8806457519531	-107.16968536376953	1420.8045654296875	483.04296875	-121.91626739501953	1281.18310546875	643.693115234375	-25.263072967529297	1301.9686279296875	658.4910278320312	-38.71242141723633	1254.8780517578125	631.5081176757812	-4.0285491943359375	1093.095947265625	710.2302856445312	-45.97779083251953	1144.3658447265625	653.9708862304688	-46.11518859863281	1086.06396484375	856.9825439453125	88.02664184570312	947.5819702148438	790.538818359375	62.45353698730469	905.5900268554688
154	1.53	392.2850341796875	83.21563720703125	1431.9307861328125	391.6650695800781	132.79690551757812	1270.35498046875	379.3019104003906	-100.91979217529297	1240.4818115234375	372.2493896484375	-74.92900848388672	1473.287109375	428.4385681152344	75.16230010986328	1436.5694580078125	579.0870971679688	2.58420729637146	1453.8468017578125	582.7754516601562	-44.440826416015625	1439.7271728515625	526.0260620117188	-49.93135070800781	1471.9359130859375	505.8759765625	-107.273681640625	1420.8037109375	482.9463806152344	-121.98828887939453	1281.1231689453125	643.6220703125	-25.518884658813477	1302.015625	658.5338745117188	-39.00251007080078	1254.990966796875	632.7229614257812	-3.8759236335754395	1093.143310546875	710.4014892578125	-46.3298454284668	1144.4974365234375	654.2000122070312	-46.43708038330078	1086.11669921875	857.2871704101562	87.80583953857422	947.9612426757812	791.048828125	62.298057556152344	905.89404296875
